Coordinates
version=1
nRows=26
nColumns=24
inDegrees=yes

Units are S.I. units (second, meters, Newtons, ...)
Angles are in degrees.

endheader
time	pelvis_tilt	pelvis_list	pelvis_rotation	pelvis_tx	pelvis_ty	pelvis_tz	hip_flexion_r	hip_adduction_r	hip_rotation_r	knee_angle_r	ankle_angle_r	subtalar_angle_r	mtp_angle_r	hip_flexion_l	hip_adduction_l	hip_rotation_l	knee_angle_l	ankle_angle_l	subtalar_angle_l	mtp_angle_l	lumbar_extension	lumbar_bending	lumbar_rotation
      1.15000000	     -1.18861098	      0.93109299	     -5.12853187	      0.02405389	      0.98924351	      0.30857493	    -17.42434006	      1.48401556	      2.87405042	     -9.85657557	     10.61888022	     -7.02427522	      8.62442078	     23.16321570	      0.96246493	     -7.81796699	     -0.10682330	      2.47094795	     -8.82959030	      7.19920111	     -2.00940944	     -1.27026684	     12.14349839
      1.15416667	     -1.17785015	      1.08182276	     -5.20297533	      0.03044614	      0.98899654	      0.30837053	    -17.44002640	      1.25120068	      2.81270462	    -10.54551978	     10.43893539	     -6.86404883	      8.99912556	     23.16259850	      1.15146115	     -7.51422713	     -0.71186817	      2.16901533	     -9.31822197	      7.29590123	     -1.94313560	     -1.47617794	     12.26812021
      1.15833333	     -1.16558017	      1.23753053	     -5.27467202	      0.03687578	      0.98879705	      0.30818132	    -17.45308381	      1.01926786	      2.79654689	    -11.22851338	     10.11569552	     -6.93582812	     13.74519695	     23.15642015	      1.34556078	     -7.20479756	     -1.32654154	      1.81602586	     -9.81654599	      8.58923593	     -1.87105800	     -1.69987071	     12.29660474
      1.16250000	     -1.14307271	      1.40817523	     -5.35222034	      0.04332878	      0.98864577	      0.30795002	    -17.42603136	      0.75704669	      2.67669096	    -12.01521115	      9.89452575	     -6.66518283	     13.79884976	     23.14993356	      1.55285912	     -6.97037634	     -1.97875365	      1.47198429	    -10.18264654	      8.60631907	     -1.80765783	     -1.92330729	     12.48410221
      1.16666667	     -1.12492580	      1.57936252	     -5.42201304	      0.04979624	      0.98852416	      0.30770699	    -17.37711202	      0.50130006	      2.58840889	    -12.83208602	      9.62485249	     -6.50243085	     13.91457945	     23.13099236	      1.76914828	     -6.65717664	     -2.60379743	      1.05328248	    -10.68991576	      8.63667686	     -1.73616266	     -2.15029129	     12.59267550
      1.17083333	     -1.10437905	      1.77525650	     -5.48905452	      0.05633501	      0.98845230	      0.30747816	    -17.32242979	      0.22167965	      2.50580242	    -13.65642533	      9.27188832	     -6.38268929	     14.02370626	     23.11127520	      2.00510939	     -6.42226788	     -3.24434595	      0.63879145	    -11.05321665	      8.66097637	     -1.64855023	     -2.42877592	     12.67709603
      1.17500000	     -1.08714873	      1.93309970	     -5.55237766	      0.06278521	      0.98840673	      0.30717993	    -17.20059505	     -0.02258897	      2.39150821	    -14.60270054	      8.96716596	     -6.18703596	     14.24155780	     23.09162502	      2.21252226	     -6.11055664	     -3.87626285	      0.17245667	    -11.58889226	      8.70496398	     -1.57959720	     -2.61458800	     12.78516266
      1.17916667	     -0.98676682	      2.12230590	     -5.59356213	      0.06931611	      0.98852790	      0.30687259	    -17.19013060	     -0.29875122	      2.27274247	    -15.48853507	      8.50209573	     -6.11747579	     15.38315165	     22.94995083	      2.47340743	     -5.75503079	     -4.44292976	     -0.38317485	    -12.20252132	      8.91541490	     -1.60456444	     -2.87726543	     12.83477827
      1.18333333	     -1.00357306	      2.31773648	     -5.66499644	      0.07585995	      0.98851932	      0.30660472	    -16.98638723	     -0.58041173	      2.18318444	    -16.50232335	      8.06804172	     -5.97008396	     15.50930593	     22.99924843	      2.68971308	     -5.69999005	     -5.16540530	     -0.71867296	    -12.33690824	      8.93328323	     -1.46436335	     -3.14503499	     12.89330994
      1.18750000	     -1.01171788	      2.49129778	     -5.72617447	      0.08234196	      0.98855713	      0.30626299	    -16.73105223	     -0.84860642	      2.02725436	    -17.62736649	      7.65585841	     -5.73779774	     15.75375787	     23.01058719	      2.90080425	     -5.52458195	     -5.82298300	     -1.12753527	    -12.64928221	      8.96337145	     -1.34980338	     -3.34163837	     12.98455553
      1.19166667	     -0.96338642	      2.67494285	     -5.75224870	      0.08884274	      0.98870372	      0.30588945	    -16.54656176	     -1.11875278	      1.87839046	    -18.71309022	      7.08266914	     -5.70891575	     20.63242589	     22.96547323	      3.13961190	     -5.34340291	     -6.49067225	     -1.53400164	    -13.02446927	      9.50061469	     -1.30620357	     -3.58478434	     12.97674307
      1.19583333	     -0.90715171	      2.86543804	     -5.79758924	      0.09535232	      0.98891836	      0.30555274	    -16.33690830	     -1.40200053	      1.76445551	    -19.85068778	      6.48437620	     -5.55671205	     20.65740716	     22.91392973	      3.36538213	     -5.30907885	     -7.17200938	     -1.86579295	    -13.14331378	      9.49871541	     -1.27105816	     -3.84628137	     13.02858200
      1.20000000	     -0.87538261	      3.04196880	     -5.82929492	      0.10179313	      0.98909783	      0.30514165	    -16.03306372	     -1.67745728	      1.58584166	    -21.11974238	      5.97604205	     -5.32336586	     20.75205554	     22.89087368	      3.58523278	     -5.22453506	     -7.85373502	     -2.18569805	    -13.36458412	      9.49511954	     -1.20345192	     -4.05522293	     13.07732261
      1.20416667	     -0.83805405	      3.22820757	     -5.85826072	      0.10825986	      0.98934659	      0.30474676	    -15.71947241	     -1.95905855	      1.44548561	    -22.39780697	      5.33640198	     -5.18694047	     20.84950573	     22.84210517	      3.81156586	     -5.17758797	     -8.50204050	     -2.46103048	    -13.49309459	      9.48895327	     -1.13545693	     -4.28952022	     13.07804670
      1.20833333	     -0.77740293	      3.40626120	     -5.87251186	      0.11466381	      0.98963105	      0.30431948	    -15.39406543	     -2.23419091	      1.29043808	    -23.73558454	      4.70117042	     -5.02603849	     20.97667409	     22.78153064	      4.03457586	     -5.15094691	     -9.17730661	     -2.68686790	    -13.61085531	      9.47919837	     -1.11077810	     -4.51705358	     13.07063634
      1.21250000	     -0.73518877	      3.58398713	     -5.88597110	      0.12103199	      0.98993353	      0.30386828	    -15.01246375	     -2.51215420	      1.15014164	    -25.11799362	      4.00746838	     -4.92413609	     23.92711837	     22.72197046	      4.26323182	     -5.07612648	     -9.81498273	     -2.92817038	    -13.85883569	      9.21223138	     -1.06902046	     -4.74275867	     13.11222842
      1.21666667	     -0.67776004	      3.75512463	     -5.87814550	      0.12738197	      0.99026424	      0.30340214	    -14.62117330	     -2.78064425	      0.99428805	    -26.54659330	      3.31488888	     -4.78140375	     23.95203982	     22.66040932	      4.47755844	     -5.11002580	    -10.48874115	     -3.02958014	    -13.80137569	      9.20447624	     -1.04140793	     -4.95585526	     13.02270738
      1.22083333	     -0.60385139	      3.92588470	     -5.86924168	      0.13367967	      0.99064628	      0.30294680	    -14.22320357	     -3.04474136	      0.88087520	    -28.00018882	      2.58378376	     -4.68422835	     23.97468069	     22.57164416	      4.69594693	     -5.12744938	    -11.14579524	     -3.10861358	    -13.81374738	      9.19498059	     -1.05051328	     -5.19119607	     12.96942367
      1.22500000	     -0.56290043	      4.08190188	     -5.84808475	      0.13990447	      0.99097733	      0.30243323	    -13.73765070	     -3.29940498	      0.73552460	    -29.54280523	      1.92450973	     -4.53797552	     24.02071883	     22.51737122	      4.90061771	     -5.15341586	    -11.79717812	     -3.16502905	    -13.80705539	      9.17183327	     -1.00914865	     -5.37688438	     12.89694517
      1.22916667	     -0.50762768	      4.24382863	     -5.82862713	      0.14611224	      0.99136493	      0.30194626	    -13.24847602	     -3.55766719	      0.62224968	    -31.09806125	      1.21111049	     -4.46154430	     24.05171707	     22.41988305	      5.11445349	     -5.16891742	    -12.39452965	     -3.18458172	    -13.79978875	      9.14649452	     -0.99336244	     -5.57398395	     12.82412284
      1.23333333	     -0.44341632	      4.40297649	     -5.79963208	      0.15225394	      0.99176809	      0.30143764	    -12.74220671	     -3.81254451	      0.51812407	    -32.68515310	      0.51708479	     -4.39461210	     24.06697134	     22.30768246	      5.33174810	     -5.18011455	    -12.97994906	     -3.17040118	    -13.79311399	      9.11565681	     -0.99466030	     -5.77446935	     12.73808574
      1.23750000	     -0.38796136	      4.55535664	     -5.76393772	      0.15834357	      0.99217360	      0.30092788	    -12.20208443	     -4.05524575	      0.43146230	    -34.29664833	     -0.15501539	     -4.35707847	     24.05847836	     22.19303730	      5.54418153	     -5.19006057	    -13.54206962	     -3.12661585	    -13.78681162	      9.07869483	     -0.99333884	     -5.96679911	     12.64000246
      1.24166667	     -0.29068556	      4.70883739	     -5.72897944	      0.16438262	      0.99265224	      0.30042811	    -11.69228121	     -4.29950370	      0.36479249	    -35.90889023	     -0.83092254	     -4.36965135	     24.03131640	     22.00879653	      5.76840883	     -5.17533942	    -14.05409034	     -3.03749584	    -13.79203760	      9.05453642	     -1.04865679	     -6.18051948	     12.54983759
      1.24583333	     -0.25783920	      4.85195742	     -5.67869185	      0.17035082	      0.99303232	      0.29989713	    -11.07746746	     -4.52752783	      0.28873368	    -37.57043476	     -1.40452591	     -4.37060715	     23.94808843	     21.89513021	      5.97739718	     -5.17902934	    -14.56462749	     -2.96311395	    -13.78398472	      9.00377753	     -1.03095395	     -6.34247867	     12.41705093
      1.25000000	     -0.20027556	      4.99712777	     -5.63065688	      0.17627777	      0.99346561	      0.29938186	    -10.47949557	     -4.75366812	      0.23945618	    -39.21806755	     -1.96525064	     -4.43959893	     23.81243047	     21.73201032	      6.19661863	     -5.16231242	    -15.03002957	     -2.84762100	    -13.79502531	      8.94673809	     -1.04664867	     -6.52500766	     12.29061839
      1.25416667	     -0.13791582	      5.11099130	     -5.57709964	      0.18214028	      0.99393882	      0.29889580	     -9.88248181	     -4.92604558	      0.23600909	    -40.84405408	     -2.49274633	     -4.58731113	     20.23760696	     21.55296462	      6.38329923	     -5.14661607	    -15.48602801	     -2.64228046	    -13.73464799	      7.67953230	     -1.07977273	     -6.67135084	     12.07003685
